<svg class="animated" id="freepik_stories-online-dating" xmlns="http://www.w3.org/2000/svg" viewBox="0 0 500 500" version="1.1" xmlns:xlink="http://www.w3.org/1999/xlink" xmlns:svgjs="http://svgjs.com/svgjs"><style>svg#freepik_stories-online-dating:not(.animated) .animable {opacity: 0;}svg#freepik_stories-online-dating.animated #freepik--speech-bubble-2--inject-2 {animation: 1.5s Infinite  linear heartbeat;animation-delay: 0s;}svg#freepik_stories-online-dating.animated #freepik--speech-bubble-1--inject-2 {animation: 1.5s Infinite  linear floating;animation-delay: 0s;}            @keyframes heartbeat {                0% {                    transform: scale(1);                }                10% {                    transform: scale(1.1);                }                30% {                    transform: scale(1);                }                40% {                    transform: scale(1);                }                50% {                    transform: scale(1.1);                }                60% {                    transform: scale(1);                }                100% {                    transform: scale(1);                }            }                    @keyframes floating {                0% {                    opacity: 1;                    transform: translateY(0px);                }                50% {                    transform: translateY(-10px);                }                100% {                    opacity: 1;                    transform: translateY(0px);                }            }        </style><g id="freepik--background-complete--inject-2" class="animable" style="transform-origin: 250px 228.23px;"><rect y="382.4" width="500" height="0.25" style="fill: rgb(235, 235, 235); transform-origin: 250px 382.525px;" id="elh9adyf57cgl" class="animable"></rect><rect x="416.78" y="398.49" width="33.12" height="0.25" style="fill: rgb(235, 235, 235); transform-origin: 433.34px 398.615px;" id="eleaz3k1gs4z9" class="animable"></rect><rect x="322.53" y="401.21" width="8.69" height="0.25" style="fill: rgb(235, 235, 235); transform-origin: 326.875px 401.335px;" id="elqts5my9ag1" class="animable"></rect><rect x="396.59" y="389.21" width="19.19" height="0.25" style="fill: rgb(235, 235, 235); transform-origin: 406.185px 389.335px;" id="elytugm8by7c" class="animable"></rect><rect x="52.46" y="390.89" width="43.19" height="0.25" style="fill: rgb(235, 235, 235); transform-origin: 74.055px 391.015px;" id="el5wyek75nr55" class="animable"></rect><rect x="104.56" y="390.89" width="6.33" height="0.25" style="fill: rgb(235, 235, 235); transform-origin: 107.725px 391.015px;" id="elxebopkc4z5m" class="animable"></rect><rect x="131.47" y="395.11" width="93.68" height="0.25" style="fill: rgb(235, 235, 235); transform-origin: 178.31px 395.235px;" id="el2o7r7g0g4qi" class="animable"></rect><path d="M237,337.8H43.91a5.71,5.71,0,0,1-5.7-5.71V60.66A5.71,5.71,0,0,1,43.91,55H237a5.71,5.71,0,0,1,5.71,5.71V332.09A5.71,5.71,0,0,1,237,337.8ZM43.91,55.2a5.46,5.46,0,0,0-5.45,5.46V332.09a5.46,5.46,0,0,0,5.45,5.46H237a5.47,5.47,0,0,0,5.46-5.46V60.66A5.47,5.47,0,0,0,237,55.2Z" style="fill: rgb(235, 235, 235); transform-origin: 140.46px 196.4px;" id="el3vo1jarerfh" class="animable"></path><path d="M453.31,337.8H260.21a5.72,5.72,0,0,1-5.71-5.71V60.66A5.72,5.72,0,0,1,260.21,55h193.1A5.71,5.71,0,0,1,459,60.66V332.09A5.71,5.71,0,0,1,453.31,337.8ZM260.21,55.2a5.47,5.47,0,0,0-5.46,5.46V332.09a5.47,5.47,0,0,0,5.46,5.46h193.1a5.47,5.47,0,0,0,5.46-5.46V60.66a5.47,5.47,0,0,0-5.46-5.46Z" style="fill: rgb(235, 235, 235); transform-origin: 356.75px 196.4px;" id="eldbhaxrdg3yj" class="animable"></path><path d="M110.6,248.16c2-75,63.67-135.48,139.2-135.48S387,173.11,389,248.16h29.85c-2-91.5-77.07-165.33-169-165.33s-167,73.83-169.06,165.33Z" style="fill: rgb(245, 245, 245); transform-origin: 249.82px 165.495px;" id="el5uenfxtjemm" class="animable"></path><path d="M110.6,248.16c2-75,63.67-135.48,139.2-135.48S387,173.11,389,248.16h22.39c-2-87.39-73.73-157.86-161.58-157.86S90.22,160.77,88.21,248.16Z" style="fill: rgb(235, 235, 235); transform-origin: 249.8px 169.23px;" id="el9d5c9ej8j16" class="animable"></path><path d="M110.6,248.16c2-75,63.67-135.48,139.2-135.48S387,173.11,389,248.16h14.92c-2-83.28-70.37-150.4-154.11-150.4S97.68,164.88,95.67,248.16Z" style="fill: rgb(250, 250, 250); transform-origin: 249.795px 172.96px;" id="elnf2ki2lss7p" class="animable"></path><path d="M110.6,248.16c2-75,63.67-135.48,139.2-135.48S387,173.11,389,248.16h7.46a146.71,146.71,0,0,0-293.32,0Z" style="fill: rgb(224, 224, 224); transform-origin: 249.8px 176.72px;" id="el8wl5zf0obw" class="animable"></path><path d="M69.47,365.56s-4.7-15.73,4.8-18.87,15.14-10.49,14.82-18.81,9.68-16.42,17.18-8.62,6.5-6,16.5-9.35,18.48,4.78,15.74,12.22,7.13,12.07,19,5.75,24.81,5.18,22.31,14.18-.45,10,7,7,20.85,5.5,16.16,16.5S69.47,365.56,69.47,365.56Z" style="fill: rgb(224, 224, 224); transform-origin: 136.13px 339.791px;" id="el7dg9r5ot3xg" class="animable"></path><path d="M320.77,367.06c-5-5-.5-13.5,4.5-14.5s10-9.8,10.27-15.4,9.23-22.83,23.23-12.19,9.75,1.57,19.88-1.42,16.51,5.61,12.07,12.06c0,0,10.17-2.55,14.36,6.95s0,15.4,0,15.4,19.14-.56,17.41,11.27S320.77,367.06,320.77,367.06Z" style="fill: rgb(224, 224, 224); transform-origin: 370.596px 347.775px;" id="el0l90o9tx7sbo" class="animable"></path><path d="M439.34,369.36v13.7h-386v-13.7a4.08,4.08,0,0,1,4-4.3H435.3A4.08,4.08,0,0,1,439.34,369.36Z" style="fill: rgb(235, 235, 235); transform-origin: 246.34px 374.06px;" id="el690rcawh528" class="animable"></path><rect x="75.34" y="365.06" width="24" height="18" style="fill: rgb(245, 245, 245); transform-origin: 87.34px 374.06px;" id="el3s0w2jq95yv" class="animable"></rect><rect x="121.34" y="365.06" width="23" height="18" style="fill: rgb(245, 245, 245); transform-origin: 132.84px 374.06px;" id="elcomcjgebv7" class="animable"></rect><rect x="166.34" y="365.06" width="24" height="18" style="fill: rgb(245, 245, 245); transform-origin: 178.34px 374.06px;" id="elsrigqxuarcd" class="animable"></rect><rect x="212.34" y="365.06" width="23" height="18" style="fill: rgb(245, 245, 245); transform-origin: 223.84px 374.06px;" id="elgwepbb9wm1" class="animable"></rect><rect x="257.34" y="365.06" width="23" height="18" style="fill: rgb(245, 245, 245); transform-origin: 268.84px 374.06px;" id="elajzctw6rgjm" class="animable"></rect><rect x="302.34" y="365.06" width="24" height="18" style="fill: rgb(245, 245, 245); transform-origin: 314.34px 374.06px;" id="ellfgbseziad" class="animable"></rect><rect x="348.34" y="365.06" width="23" height="18" style="fill: rgb(245, 245, 245); transform-origin: 359.84px 374.06px;" id="el5mfn3fik5rp" class="animable"></rect><rect x="393.34" y="365.06" width="24" height="18" style="fill: rgb(245, 245, 245); transform-origin: 405.34px 374.06px;" id="elrvam1f8zel" class="animable"></rect><path d="M131.2,241.9a8,8,0,0,0-8-8,7.81,7.81,0,0,0-2.28.34,17.85,17.85,0,0,0,.18-2.44A16.86,16.86,0,0,0,104.28,215a16.63,16.63,0,0,0-3.1.29,14.73,14.73,0,0,0-27.32,7.45h-.25a13.58,13.58,0,0,0,0,27.15h49.86A8,8,0,0,0,131.2,241.9Z" style="fill: rgb(224, 224, 224); transform-origin: 95.7995px 229.047px;" id="elv9qpz8w6s7g" class="animable"></path><path d="M432.08,244.19a8,8,0,0,0-8-8,7.81,7.81,0,0,0-2.28.34,17.85,17.85,0,0,0,.18-2.44,16.86,16.86,0,0,0-16.86-16.86,17.52,17.52,0,0,0-3.1.29A14.73,14.73,0,0,0,374.74,225h-.24a13.58,13.58,0,1,0,0,27.15h49.85A8,8,0,0,0,432.08,244.19Z" style="fill: rgb(224, 224, 224); transform-origin: 396.316px 231.327px;" id="elyn5es4966p8" class="animable"></path><path d="M416.39,158.79a5.08,5.08,0,0,0-5.08-5.08,5,5,0,0,0-1.46.22,11.46,11.46,0,0,0,.11-1.56,10.73,10.73,0,0,0-12.74-10.58,9.4,9.4,0,0,0-17.44,4.75h-.16a8.67,8.67,0,1,0,0,17.33h31.83A5.09,5.09,0,0,0,416.39,158.79Z" style="fill: rgb(224, 224, 224); transform-origin: 393.523px 150.567px;" id="elewteqcuxpu7" class="animable"></path><path d="M303,92.86A5.06,5.06,0,0,0,298,87.8a5,5,0,0,0-1.45.22,11.42,11.42,0,0,0,.11-1.55,10.67,10.67,0,0,0-12.68-10.53,9.36,9.36,0,0,0-17.36,4.73h-.16a8.63,8.63,0,0,0,0,17.26h31.68A5,5,0,0,0,303,92.86Z" style="fill: rgb(224, 224, 224); transform-origin: 280.415px 84.6838px;" id="el3ff843u5pjg" class="animable"></path><path d="M144.51,137.92a5.06,5.06,0,0,0-5.06-5,4.94,4.94,0,0,0-1.45.21,11.42,11.42,0,0,0,.11-1.55A10.68,10.68,0,0,0,125.42,121a9.36,9.36,0,0,0-17.36,4.73h-.15a8.63,8.63,0,0,0,0,17.26h31.68A5.06,5.06,0,0,0,144.51,137.92Z" style="fill: rgb(224, 224, 224); transform-origin: 121.895px 129.744px;" id="elj4062fw7hir" class="animable"></path></g><g id="freepik--Shadow--inject-2" class="animable" style="transform-origin: 250px 416.24px;"><ellipse id="freepik--path--inject-2" cx="250" cy="416.24" rx="193.89" ry="11.32" style="fill: rgb(245, 245, 245); transform-origin: 250px 416.24px;" class="animable"></ellipse></g><g id="freepik--plant-1--inject-2" class="animable" style="transform-origin: 80.4049px 376.915px;"><path d="M88.11,344c-.21,1.47,3.77,2.44,7,3-.26,2.67-2,5.37-4.49,7.88-3.09-1.73-7.49-4-8.3-3.47s3.62,3.53,6.44,5.24a55.88,55.88,0,0,1-6.39,4.84c-1.38-1.29-3-2.42-4-1.81s-.73,2.64-.24,4.42c-3.36,2-5.87,3.15-5.87,3.15a67.5,67.5,0,0,1-2.24-9.53c.17-.34.34-.67.49-1,.54-1.25,0-1.78-.88-2a32.91,32.91,0,0,1,0-6.87c3.79-.79,8.41-2.27,6.68-4.55-1-1.37-2.95-1.52-4.94-1.18a8.61,8.61,0,0,1,.94-1.28c6.92-7.62,11.74,0,11.74,0,4-3.35,9.66-2.44,10.88,2.79C92.68,343,88.36,342.16,88.11,344Z" style="fill: rgb(255, 142, 60); transform-origin: 82.2801px 352.352px;" id="elkmius0q6x9r" class="animable"></path><g id="el0tv2gq62pbje"><path d="M88.11,344c-.21,1.47,3.77,2.44,7,3-.26,2.67-2,5.37-4.49,7.88-3.09-1.73-7.49-4-8.3-3.47s3.62,3.53,6.44,5.24a55.88,55.88,0,0,1-6.39,4.84c-1.38-1.29-3-2.42-4-1.81s-.73,2.64-.24,4.42c-3.36,2-5.87,3.15-5.87,3.15a67.5,67.5,0,0,1-2.24-9.53c.17-.34.34-.67.49-1,.54-1.25,0-1.78-.88-2a32.91,32.91,0,0,1,0-6.87c3.79-.79,8.41-2.27,6.68-4.55-1-1.37-2.95-1.52-4.94-1.18a8.61,8.61,0,0,1,.94-1.28c6.92-7.62,11.74,0,11.74,0,4-3.35,9.66-2.44,10.88,2.79C92.68,343,88.36,342.16,88.11,344Z" style="fill: rgb(255, 255, 255); opacity: 0.3; isolation: isolate; transform-origin: 82.2801px 352.352px;" class="animable"></path></g><path d="M79.48,400l1-.09c0-.51-4.1-51.52,7.35-56.33a3.85,3.85,0,0,1,3.47.09c4.14,2.15,6.12,11.08,6.14,11.17l1-.21c-.09-.39-2.11-9.48-6.66-11.85a4.88,4.88,0,0,0-4.32-.12C75.33,347.71,79.3,397.83,79.48,400Z" style="fill: rgb(255, 142, 60); transform-origin: 88.5788px 371.107px;" id="el5w7kqqwqz0f" class="animable"></path><path d="M78,398.86c.2-2.3,4.87-56.27-3.87-62-2.09-1.37-4-1.66-5.55-.86-4.12,2.08-4.67,10.91-4.69,11.28l1,.06c0-.09.53-8.63,4.15-10.45,1.24-.62,2.77-.36,4.55.81,8.24,5.4,3.46,60.52,3.41,61.07Z" style="fill: rgb(255, 142, 60); transform-origin: 71.657px 367.21px;" id="elu4nggm7dyd" class="animable"></path><path d="M76.72,403.22c.07-1.75,1.51-43.07-6.45-46.68a5.55,5.55,0,0,0-4.73,0c-5.46,2.4-8.83,12.57-9,13l1,.31c0-.1,3.37-10.19,8.42-12.41a4.56,4.56,0,0,1,3.92,0c6.1,2.77,6.3,33.95,5.86,45.74Z" style="fill: rgb(255, 142, 60); transform-origin: 66.7023px 379.615px;" id="eli7u3cowdq2a" class="animable"></path><path d="M78.75,401.33l1-.11c-1.4-12.3-4.08-45.06.3-49a1.72,1.72,0,0,1,1.79-.55c2.93,1.12,4.72,11.78,5.16,15.79l1-.11c-.17-1.54-1.77-15.07-5.8-16.62a2.67,2.67,0,0,0-2.82.74C73.71,356.55,78.54,399.51,78.75,401.33Z" style="fill: rgb(255, 142, 60); transform-origin: 82.3163px 375.962px;" id="ellhkl43at6re" class="animable"></path><polygon points="95.44 378.02 59.51 378.02 62.51 418.27 92.44 418.27 95.44 378.02" style="fill: rgb(38, 50, 56); transform-origin: 77.475px 398.145px;" id="eldwxfpv5m2on" class="animable"></polygon><g id="elk8y70o8tdd"><polygon points="84.52 378.02 83.52 418.27 62.51 418.27 59.51 378.02 84.52 378.02" style="fill: rgb(255, 255, 255); opacity: 0.2; isolation: isolate; transform-origin: 72.015px 398.145px;" class="animable"></polygon></g><path d="M90.54,363.25c.38,1,3.17.21,5.36-.57.75,1.74.58,4-.07,6.41-2.5,0-6,.08-6.31.7s3.44.93,5.77,1A40.05,40.05,0,0,1,93,376c-1.3-.32-2.68-.47-3.07.24s.45,1.88,1.37,2.81c-1.4,2.36-2.54,3.95-2.54,3.95a48.12,48.12,0,0,1-4.65-5.11c0-.26,0-.53-.05-.8-.09-1-.6-1.1-1.21-.91A22.7,22.7,0,0,1,80.47,372c2.07-1.79,4.41-4.29,2.56-5.1-1.11-.49-2.34.07-3.45,1a5.81,5.81,0,0,1,.14-1.11c1.65-7.07,7.24-4,7.24-4,1.33-3.44,5.12-4.82,7.67-2C93,361.1,90.08,362.05,90.54,363.25Z" style="fill: rgb(255, 142, 60); transform-origin: 87.9869px 371.138px;" id="el1dhmbh8ydcr" class="animable"></path><g id="elwqa60jpr5xb"><path d="M90.54,363.25c.38,1,3.17.21,5.36-.57.75,1.74.58,4-.07,6.41-2.5,0-6,.08-6.31.7s3.44.93,5.77,1A40.05,40.05,0,0,1,93,376c-1.3-.32-2.68-.47-3.07.24s.45,1.88,1.37,2.81c-1.4,2.36-2.54,3.95-2.54,3.95a48.12,48.12,0,0,1-4.65-5.11c0-.26,0-.53-.05-.8-.09-1-.6-1.1-1.21-.91A22.7,22.7,0,0,1,80.47,372c2.07-1.79,4.41-4.29,2.56-5.1-1.11-.49-2.34.07-3.45,1a5.81,5.81,0,0,1,.14-1.11c1.65-7.07,7.24-4,7.24-4,1.33-3.44,5.12-4.82,7.67-2C93,361.1,90.08,362.05,90.54,363.25Z" style="fill: rgb(255, 255, 255); opacity: 0.3; isolation: isolate; transform-origin: 87.9869px 371.138px;" class="animable"></path></g><path d="M63.87,368a14.5,14.5,0,0,1,3.28.69,7.36,7.36,0,0,0,.48-2.37c.23-7.25-5-4.19-7.7-6.32a5.89,5.89,0,0,0-4.58-1.44,11,11,0,0,1,.62,1.24,1.14,1.14,0,0,1-.88,1.55,3.29,3.29,0,0,1-2-.24,4.1,4.1,0,0,1-.53-.36,9.87,9.87,0,0,0-1,2.42,13.52,13.52,0,0,0-.47,3.1,10.37,10.37,0,0,1,1.21.34,1.12,1.12,0,0,1,.45,1.72,4.92,4.92,0,0,1-1.49,1.05,17,17,0,0,0,.91,3.4l.37.05c.26.06.52.12.78.2a2.32,2.32,0,0,1,.44.16,1.13,1.13,0,0,1,.25,1.92,4.34,4.34,0,0,1-.54.33,7.89,7.89,0,0,0,2.87,2.9,31.08,31.08,0,0,0,3-1.61c-.22-.29-.43-.58-.63-.88a1.68,1.68,0,0,1-.31-1.14,1.52,1.52,0,0,1,.58-1,1.55,1.55,0,0,1,2.17.28c.24.35.5.69.76,1a18.55,18.55,0,0,0,3.68-3.57l-.11,0a10.87,10.87,0,0,0-2-.34,1.54,1.54,0,0,1,.4-3.06Z" style="fill: rgb(255, 142, 60); transform-origin: 59.3637px 368.43px;" id="elvq5z4xs1tl" class="animable"></path><g id="el59xlgris2on"><path d="M63.87,368a14.5,14.5,0,0,1,3.28.69,7.36,7.36,0,0,0,.48-2.37c.23-7.25-5-4.19-7.7-6.32a5.89,5.89,0,0,0-4.58-1.44,11,11,0,0,1,.62,1.24,1.14,1.14,0,0,1-.88,1.55,3.29,3.29,0,0,1-2-.24,4.1,4.1,0,0,1-.53-.36,9.87,9.87,0,0,0-1,2.42,13.52,13.52,0,0,0-.47,3.1,10.37,10.37,0,0,1,1.21.34,1.12,1.12,0,0,1,.45,1.72,4.92,4.92,0,0,1-1.49,1.05,17,17,0,0,0,.91,3.4l.37.05c.26.06.52.12.78.2a2.32,2.32,0,0,1,.44.16,1.13,1.13,0,0,1,.25,1.92,4.34,4.34,0,0,1-.54.33,7.89,7.89,0,0,0,2.87,2.9,31.08,31.08,0,0,0,3-1.61c-.22-.29-.43-.58-.63-.88a1.68,1.68,0,0,1-.31-1.14,1.52,1.52,0,0,1,.58-1,1.55,1.55,0,0,1,2.17.28c.24.35.5.69.76,1a18.55,18.55,0,0,0,3.68-3.57l-.11,0a10.87,10.87,0,0,0-2-.34,1.54,1.54,0,0,1,.4-3.06Z" style="fill: rgb(255, 255, 255); opacity: 0.5; isolation: isolate; transform-origin: 59.3637px 368.43px;" class="animable"></path></g><path d="M61.79,343.05a9.89,9.89,0,0,0-2-1.08,5.31,5.31,0,0,1,.79-1.46c3.06-3.9,4.45,0,6.82.06a4,4,0,0,1,3,1.26,6.74,6.74,0,0,0-.87.38.79.79,0,0,0-.22,1.2,2.21,2.21,0,0,0,1.18.76,2,2,0,0,0,.43,0,6.53,6.53,0,0,1-.54,1.71,10.11,10.11,0,0,1-1.11,1.84,8,8,0,0,0-.79-.36.78.78,0,0,0-1,.71,3.57,3.57,0,0,0,.33,1.21,11.68,11.68,0,0,1-2,1.38l-.22-.13c-.16-.09-.33-.17-.49-.24a1.82,1.82,0,0,0-.3-.11.79.79,0,0,0-.74.16.77.77,0,0,0-.24.74,2.83,2.83,0,0,0,.14.41,5.39,5.39,0,0,1-2.78.26,21.16,21.16,0,0,1-.9-2.18l.72-.19a1.17,1.17,0,0,0,.67-.46,1.1,1.1,0,0,0,.14-.79,1.11,1.11,0,0,0-.47-.67,1.09,1.09,0,0,0-.79-.14c-.29.09-.57.15-.86.21a13,13,0,0,1-.37-3.49l.08,0a8,8,0,0,1,1.22.72,1.05,1.05,0,0,0,1.13-1.78Z" style="fill: rgb(255, 142, 60); transform-origin: 65.1171px 345.303px;" id="elxdcdvcsj4el" class="animable"></path><g id="elclojh0xxzou"><path d="M61.79,343.05a9.89,9.89,0,0,0-2-1.08,5.31,5.31,0,0,1,.79-1.46c3.06-3.9,4.45,0,6.82.06a4,4,0,0,1,3,1.26,6.74,6.74,0,0,0-.87.38.79.79,0,0,0-.22,1.2,2.21,2.21,0,0,0,1.18.76,2,2,0,0,0,.43,0,6.53,6.53,0,0,1-.54,1.71,10.11,10.11,0,0,1-1.11,1.84,8,8,0,0,0-.79-.36.78.78,0,0,0-1,.71,3.57,3.57,0,0,0,.33,1.21,11.68,11.68,0,0,1-2,1.38l-.22-.13c-.16-.09-.33-.17-.49-.24a1.82,1.82,0,0,0-.3-.11.79.79,0,0,0-.74.16.77.77,0,0,0-.24.74,2.83,2.83,0,0,0,.14.41,5.39,5.39,0,0,1-2.78.26,21.16,21.16,0,0,1-.9-2.18l.72-.19a1.17,1.17,0,0,0,.67-.46,1.1,1.1,0,0,0,.14-.79,1.11,1.11,0,0,0-.47-.67,1.09,1.09,0,0,0-.79-.14c-.29.09-.57.15-.86.21a13,13,0,0,1-.37-3.49l.08,0a8,8,0,0,1,1.22.72,1.05,1.05,0,0,0,1.13-1.78Z" style="fill: rgb(255, 255, 255); opacity: 0.3; isolation: isolate; transform-origin: 65.1171px 345.303px;" class="animable"></path></g><path d="M91.06,350.3c.21,1.47-3.77,2.44-7,3,.26,2.67,2,5.37,4.49,7.89,3.09-1.74,7.49-4,8.3-3.48s-3.62,3.53-6.44,5.25a57.06,57.06,0,0,0,6.39,4.84c1.38-1.29,3-2.43,4-1.81s.73,2.63.24,4.42c3.36,1.95,5.87,3.14,5.87,3.14a67.5,67.5,0,0,0,2.24-9.53c-.17-.33-.34-.67-.49-1-.54-1.25,0-1.78.88-2a32.82,32.82,0,0,0,0-6.86c-3.79-.8-8.41-2.27-6.68-4.55,1-1.37,3-1.53,4.94-1.19a8.52,8.52,0,0,0-.94-1.27c-6.92-7.62-11.74,0-11.74,0-4-3.35-9.66-2.45-10.88,2.79C86.49,349.35,90.8,348.49,91.06,350.3Z" style="fill: rgb(255, 142, 60); transform-origin: 96.8899px 358.657px;" id="elyyvut2k6dg" class="animable"></path><g id="el31chkraxp6p"><path d="M91.06,350.3c.21,1.47-3.77,2.44-7,3,.26,2.67,2,5.37,4.49,7.89,3.09-1.74,7.49-4,8.3-3.48s-3.62,3.53-6.44,5.25a57.06,57.06,0,0,0,6.39,4.84c1.38-1.29,3-2.43,4-1.81s.73,2.63.24,4.42c3.36,1.95,5.87,3.14,5.87,3.14a67.5,67.5,0,0,0,2.24-9.53c-.17-.33-.34-.67-.49-1-.54-1.25,0-1.78.88-2a32.82,32.82,0,0,0,0-6.86c-3.79-.8-8.41-2.27-6.68-4.55,1-1.37,3-1.53,4.94-1.19a8.52,8.52,0,0,0-.94-1.27c-6.92-7.62-11.74,0-11.74,0-4-3.35-9.66-2.45-10.88,2.79C86.49,349.35,90.8,348.49,91.06,350.3Z" style="fill: rgb(255, 255, 255); opacity: 0.5; isolation: isolate; transform-origin: 96.8899px 358.657px;" class="animable"></path></g></g><g id="freepik--plant-2--inject-2" class="animable" style="transform-origin: 421.461px 371.316px;"><path d="M401.8,350s6.35-5.29,11.79,0,6.49,38.08,6.49,38.08" style="fill: none; stroke: rgb(255, 142, 60); stroke-miterlimit: 10; transform-origin: 410.94px 367.864px;" id="el0uxhe82wivro" class="animable"></path><path d="M420.53,394.43s-3.74-38.47,10.35-54.64" style="fill: none; stroke: rgb(255, 142, 60); stroke-miterlimit: 10; transform-origin: 425.48px 367.11px;" id="elb98isr9a8zf" class="animable"></path><path d="M419.19,390.38s2.89-43.8-7.68-53.52" style="fill: none; stroke: rgb(255, 142, 60); stroke-miterlimit: 10; transform-origin: 415.531px 363.62px;" id="eljutx9dcccp" class="animable"></path><path d="M420.53,390.38s.25-28.95,8.1-33.45,11.85,10.18,11.85,10.18" style="fill: none; stroke: rgb(255, 142, 60); stroke-miterlimit: 10; transform-origin: 430.505px 373.226px;" id="elvw1p6lfck8" class="animable"></path><path d="M417.43,390.38s1.28-22.22-4.8-30.17-12.49,3.41-12.49,3.41" style="fill: none; stroke: rgb(255, 142, 60); stroke-miterlimit: 10; transform-origin: 408.841px 373.883px;" id="elog2luo3q75m" class="animable"></path><path d="M419.55,393.35s-3.93-52,2.58-60.77" style="fill: none; stroke: rgb(255, 142, 60); stroke-miterlimit: 10; transform-origin: 420.252px 362.965px;" id="eliz4hcwlsfn" class="animable"></path><path d="M435.35,361.15s-3.91,1.44-2.75,4.85,13.55,9,13.55,9,5.18-4.76.42-12.49S435.46,358.71,435.35,361.15Z" style="fill: rgb(255, 142, 60); transform-origin: 440.483px 366.479px;" id="elrk51tkqxt8" class="animable"></path><g id="elwere0jkt2yk"><path d="M435.35,361.15s-3.91,1.44-2.75,4.85,13.55,9,13.55,9,5.18-4.76.42-12.49S435.46,358.71,435.35,361.15Z" style="fill: rgb(255, 255, 255); opacity: 0.2; isolation: isolate; transform-origin: 440.483px 366.479px;" class="animable"></path></g><path d="M418.34,354.66s4.16-.17,4.4,3.42-9,13.53-9,13.53-6.61-2.39-5.19-11.35S417.3,352.45,418.34,354.66Z" style="fill: rgb(255, 142, 60); transform-origin: 415.547px 362.352px;" id="elp50w0nz2xb" class="animable"></path><g id="elk0hhix21rg"><path d="M418.34,354.66s4.16-.17,4.4,3.42-9,13.53-9,13.53-6.61-2.39-5.19-11.35S417.3,352.45,418.34,354.66Z" style="fill: rgb(255, 255, 255); opacity: 0.2; isolation: isolate; transform-origin: 415.547px 362.352px;" class="animable"></path></g><path d="M414.81,337.47s2.78-.3,2.55-2-10.8-6.05-17.05,1c0,0,4,6.87,9.78,7S414.81,337.47,414.81,337.47Z" style="fill: rgb(255, 142, 60); transform-origin: 408.842px 338.025px;" id="elbvf3nik81tp" class="animable"></path><g id="eljgw3z5fk3s"><path d="M414.81,337.47s2.78-.3,2.55-2-10.8-6.05-17.05,1c0,0,4,6.87,9.78,7S414.81,337.47,414.81,337.47Z" style="fill: rgb(255, 255, 255); opacity: 0.2; isolation: isolate; transform-origin: 408.842px 338.025px;" class="animable"></path></g><path d="M420,333.35s-2.52,1.22-3.23-.33,6-10.85,15-8.18c0,0,.24,8-4.62,11.08S420,333.35,420,333.35Z" style="fill: rgb(255, 142, 60); transform-origin: 424.245px 330.6px;" id="elnazwvsmukmb" class="animable"></path><g id="eliwd5ubmev8"><path d="M420,333.35s-2.52,1.22-3.23-.33,6-10.85,15-8.18c0,0,.24,8-4.62,11.08S420,333.35,420,333.35Z" style="fill: rgb(255, 255, 255); opacity: 0.2; isolation: isolate; transform-origin: 424.245px 330.6px;" class="animable"></path></g><path d="M406.83,359.78s1.91-1.55-.16-2.3-12.22-.55-12.33,9.52c0,0,11.83,2,13.3-1.87S406.83,359.78,406.83,359.78Z" style="fill: rgb(255, 142, 60); transform-origin: 401.237px 362.366px;" id="elff33n9uyjan" class="animable"></path><g id="elsgv4weylabi"><path d="M406.83,359.78s1.91-1.55-.16-2.3-12.22-.55-12.33,9.52c0,0,11.83,2,13.3-1.87S406.83,359.78,406.83,359.78Z" style="fill: rgb(255, 255, 255); opacity: 0.2; isolation: isolate; transform-origin: 401.237px 362.366px;" class="animable"></path></g><path d="M431,337.21s-1.92-1.55.15-2.3,12.23-.54,12.34,9.52c0,0-11.83,2-13.3-1.87S431,337.21,431,337.21Z" style="fill: rgb(255, 142, 60); transform-origin: 436.593px 339.796px;" id="els5umgm2544p" class="animable"></path><g id="elcgcn8l7oiqw"><path d="M431,337.21s-1.92-1.55.15-2.3,12.23-.54,12.34,9.52c0,0-11.83,2-13.3-1.87S431,337.21,431,337.21Z" style="fill: rgb(255, 255, 255); opacity: 0.2; isolation: isolate; transform-origin: 436.593px 339.796px;" class="animable"></path></g><path d="M424.7,345.32s-.17-1.88,1.35-1.15,6.81,6.45,1.32,11.88c0,0-7.39-5.48-6.05-8.33S424.7,345.32,424.7,345.32Z" style="fill: rgb(255, 142, 60); transform-origin: 425.482px 350.026px;" id="elu8pful2l7vg" class="animable"></path><g id="elbrjphefekt"><path d="M424.7,345.32s-.17-1.88,1.35-1.15,6.81,6.45,1.32,11.88c0,0-7.39-5.48-6.05-8.33S424.7,345.32,424.7,345.32Z" style="fill: rgb(255, 255, 255); opacity: 0.2; isolation: isolate; transform-origin: 425.482px 350.026px;" class="animable"></path></g><path d="M405.11,348s1.15-1.5-.53-1.69-9.21,1.82-7.45,9.34c0,0,9.16-.69,9.56-3.81S405.11,348,405.11,348Z" style="fill: rgb(255, 142, 60); transform-origin: 401.804px 350.974px;" id="el2jvjm5y755l" class="animable"></path><g id="elc1gtfdapxna"><path d="M405.11,348s1.15-1.5-.53-1.69-9.21,1.82-7.45,9.34c0,0,9.16-.69,9.56-3.81S405.11,348,405.11,348Z" style="fill: rgb(255, 255, 255); opacity: 0.2; isolation: isolate; transform-origin: 401.804px 350.974px;" class="animable"></path></g><polygon points="436.09 418.27 404.63 418.27 401.23 383.82 439.48 383.82 436.09 418.27" style="fill: rgb(255, 142, 60); transform-origin: 420.355px 401.045px;" id="elzxzhedn0r0q" class="animable"></polygon><g id="elvri0jo1l9w"><polygon points="436.09 418.27 404.63 418.27 401.23 383.82 439.48 383.82 436.09 418.27" style="fill: rgb(255, 255, 255); opacity: 0.5; isolation: isolate; transform-origin: 420.355px 401.045px;" class="animable"></polygon></g><rect x="399.55" y="380.02" width="41.61" height="7.6" style="fill: rgb(255, 142, 60); transform-origin: 420.355px 383.82px;" id="el8e9u2ju4ovg" class="animable"></rect><g id="el6dc40qq6w2"><rect x="399.55" y="380.02" width="41.61" height="7.6" style="fill: rgb(255, 255, 255); opacity: 0.2; isolation: isolate; transform-origin: 420.355px 383.82px;" class="animable"></rect></g></g><g id="freepik--character-1--inject-2" class="animable" style="transform-origin: 167.665px 270.805px;"><path d="M129.13,418.27H222a9.39,9.39,0,0,0,9.5-10.41l-24-274.12a11.57,11.57,0,0,0-11.31-10.4H103.32a9.38,9.38,0,0,0-9.49,10.4l24,274.12A11.59,11.59,0,0,0,129.13,418.27Z" style="fill: rgb(38, 50, 56); transform-origin: 162.665px 270.805px;" id="elikks6yeg05" class="animable"></path><g id="el5o6krdiyg4d"><path d="M129.13,418.27H222a9.39,9.39,0,0,0,9.5-10.41l-24-274.12a11.57,11.57,0,0,0-11.31-10.4H103.32a9.38,9.38,0,0,0-9.49,10.4l24,274.12A11.59,11.59,0,0,0,129.13,418.27Z" style="fill: rgb(255, 255, 255); opacity: 0.6; isolation: isolate; transform-origin: 162.665px 270.805px;" class="animable"></path></g><path d="M139.13,418.27H232a9.39,9.39,0,0,0,9.5-10.41l-24-274.12a11.57,11.57,0,0,0-11.31-10.4H113.32a9.38,9.38,0,0,0-9.49,10.4l24,274.12A11.59,11.59,0,0,0,139.13,418.27Z" style="fill: rgb(38, 50, 56); transform-origin: 172.665px 270.805px;" id="ele7y0a4mwigg" class="animable"></path><g id="elvh0sa8w508e"><path d="M139.13,418.27H232a9.39,9.39,0,0,0,9.5-10.41l-24-274.12a11.57,11.57,0,0,0-11.31-10.4H113.32a9.38,9.38,0,0,0-9.49,10.4l24,274.12A11.59,11.59,0,0,0,139.13,418.27Z" style="fill: rgb(255, 255, 255); opacity: 0.8; isolation: isolate; transform-origin: 172.665px 270.805px;" class="animable"></path></g><path d="M107.62,133.22l24,274.64c.2,2.26,1.61,4,3.17,4H235.44c1.44,0,2.38-1.61,2.2-3.68l-24.09-275.3c-.15-1.8-1.21-3.37-2.45-3.37H185.94c-.71,0-1.29.67-1.47,1.63l-.72,3.7c-.18,1-.77,1.62-1.48,1.62H139.45a2.14,2.14,0,0,1-1.76-1.59l-1.37-3.72a2.19,2.19,0,0,0-1.76-1.64h-24.8C108.39,129.52,107.45,131.24,107.62,133.22Z" style="fill: rgb(38, 50, 56); transform-origin: 172.631px 270.685px;" id="eljv1qg74ac3" class="animable"></path><polygon points="108.8 146.68 129.41 382.33 235.38 382.33 214.76 146.68 108.8 146.68" style="fill: rgb(255, 142, 60); transform-origin: 172.09px 264.505px;" id="elw8o7qc8g93" class="animable"></polygon><g id="elgbnn7t177r9"><polygon points="202.55 140.59 201.24 140.59 201.02 138.07 202.33 138.07 202.55 140.59" style="fill: rgb(255, 255, 255); opacity: 0.6; isolation: isolate; transform-origin: 201.785px 139.33px;" class="animable"></polygon></g><g id="el7ghm6q7l1xa"><polygon points="204.68 140.59 203.37 140.59 203.08 137.23 204.39 137.23 204.68 140.59" style="fill: rgb(255, 255, 255); opacity: 0.6; isolation: isolate; transform-origin: 203.88px 138.91px;" class="animable"></polygon></g><g id="el0z2miu7lwp2"><polygon points="206.82 140.59 205.51 140.59 205.14 136.39 206.45 136.39 206.82 140.59" style="fill: rgb(255, 255, 255); opacity: 0.6; isolation: isolate; transform-origin: 205.98px 138.49px;" class="animable"></polygon></g><g id="el94fmkkdukg"><polygon points="208.95 140.59 207.64 140.59 207.2 135.55 208.51 135.55 208.95 140.59" style="fill: rgb(255, 255, 255); opacity: 0.6; isolation: isolate; transform-origin: 208.075px 138.07px;" class="animable"></polygon></g><g id="el9b06hmgsspv"><polygon points="120.18 139.67 120.95 139.67 120.73 137.15 119.96 137.15 120.18 139.67" style="fill: rgb(255, 255, 255); opacity: 0.6; isolation: isolate; transform-origin: 120.455px 138.41px;" class="animable"></polygon></g><g id="el2636jyuf6zi"><polygon points="119.72 140.59 113.54 140.59 113.16 136.23 119.34 136.23 119.72 140.59" style="fill: rgb(255, 255, 255); opacity: 0.6; isolation: isolate; transform-origin: 116.44px 138.41px;" class="animable"></polygon></g><g id="el7adrmpfste2"><path d="M160.33,129.88c.1,1.16.83,2.1,1.63,2.1s1.38-.94,1.28-2.1-.84-2.1-1.64-2.1S160.23,128.72,160.33,129.88Z" style="fill: rgb(38, 50, 56); opacity: 0.6; isolation: isolate; transform-origin: 161.785px 129.88px;" class="animable"></path></g><g id="elboi9jz0s8ld"><path d="M157.38,129.88c.07.74.54,1.34,1.05,1.34s.88-.6.82-1.34-.54-1.34-1.05-1.34S157.32,129.14,157.38,129.88Z" style="fill: rgb(38, 50, 56); opacity: 0.6; isolation: isolate; transform-origin: 158.315px 129.88px;" class="animable"></path></g><g id="el0675xrg692sy"><polygon points="108.8 146.68 111.66 179.37 112.15 185.01 114.44 211.2 114.8 215.27 118.05 252.4 118.4 256.47 121.52 292.12 121.97 297.25 129.41 382.33 235.38 382.33 214.76 146.68 108.8 146.68" style="fill: rgb(255, 255, 255); opacity: 0.4; isolation: isolate; transform-origin: 172.09px 264.505px;" class="animable"></polygon></g><g id="el6hu7pfkzx6i"><path d="M111.66,179.37l.49,5.64,2.29,26.19.36,4.07,3.25,37.13.35,4.07,3.12,35.65.45,5.13h57.84V189.08a57.65,57.65,0,0,0-68.15-9.71Z" style="fill: rgb(255, 255, 255); opacity: 0.2; transform-origin: 145.735px 234.805px;" class="animable"></path></g><g id="elzbspsdypfx"><g style="opacity: 0.2; transform-origin: 143.415px 234.825px;" class="animable"><rect x="141.28" y="215.27" width="33.4" height="37.13" style="fill: rgb(255, 255, 255); transform-origin: 157.98px 233.835px;" id="elpusx247k1r" class="animable"></rect><polygon points="114.8 215.27 118.05 252.4 137.22 252.4 137.22 215.27 114.8 215.27" style="fill: rgb(255, 255, 255); transform-origin: 126.01px 233.835px;" id="elanw35eztdg" class="animable"></polygon><path d="M112.15,185l2.29,26.19h22.78V177.53A52,52,0,0,0,112.15,185Z" style="fill: rgb(255, 255, 255); transform-origin: 124.685px 194.36px;" id="elhss75iimcp7" class="animable"></path><polygon points="118.4 256.47 121.52 292.12 137.22 292.12 137.22 256.47 118.4 256.47" style="fill: rgb(255, 255, 255); transform-origin: 127.81px 274.295px;" id="elf2dtw45m9o" class="animable"></polygon><path d="M141.28,211.2V177.53a52,52,0,0,1,33.4,13.74V211.2Z" style="fill: rgb(255, 255, 255); transform-origin: 157.98px 194.365px;" id="el23ouuyuii1e" class="animable"></path><rect x="141.28" y="256.47" width="33.4" height="35.65" style="fill: rgb(255, 255, 255); transform-origin: 157.98px 274.295px;" id="ele0q3rxrf35d" class="animable"></rect></g></g><path d="M192.3,183.83s-1.18-7.33,10-8.56,19.33,6.55,19.2,16.27,2.48,18.62,6.73,20,7,5.35,5.34,8.3c0,0,2.2-2.13-4.1-4.21s-8.44-4.7-8.44-4.7.46,9.72,8,12.1,5.59,13.28-2.8,14-11.5-2.86-11.5-2.86,2.28,6.37,7.54,5.55c0,0-11.86,1.91-25-8.56S181.39,201.72,183,192.13,192.3,183.83,192.3,183.83Z" style="fill: rgb(46, 53, 58); transform-origin: 208.323px 207.499px;" id="elqfz3oxhbkcd" class="animable"></path><path d="M164.21,259l-2.38,11.33s-8.67,5.28-9.61,6.84.84,6.2,1.36,6.47,10.91-4.84,11-6.3a45.39,45.39,0,0,0-.46-5.94l2.93-11.59Z" style="fill: rgb(238, 193, 187); transform-origin: 159.5px 271.325px;" id="elz2cd17hsw9" class="animable"></path><path d="M178.58,210.43c-9-.88-17.71,40.61-16.56,57.19l4.84-.34s6.26-20.46,9.73-33.7S178.58,210.43,178.58,210.43Z" style="fill: rgb(38, 50, 56); transform-origin: 170.406px 239.018px;" id="eloxskbjsw78c" class="animable"></path><g id="elchyrc9geadl"><path d="M162,267.62l4.84-.34s6.26-20.46,9.73-33.7c.2-.77.38-1.52.56-2.26a62.38,62.38,0,0,0,1.43-20.89c-3.43-.34-6.81,5.45-9.61,13.67C164.38,237.5,161.31,257.34,162,267.62Z" style="fill: rgb(255, 255, 255); opacity: 0.2; isolation: isolate; transform-origin: 170.388px 239.018px;" class="animable"></path></g><g id="elevuv6f2vs0o"><path d="M162,267.62l4.84-.34s6.26-20.46,9.73-33.7c.2-.77.38-1.52.56-2.26l-2.69-13.67A40.08,40.08,0,0,0,169,224.1C164.38,237.5,161.31,257.34,162,267.62Z" style="opacity: 0.2; isolation: isolate; transform-origin: 169.517px 242.635px;" class="animable"></path></g><path d="M210.1,221.06c4.8,2.34,2.86,17.07-7.45,40.1s-13.35,25.68-13.35,25.68-7.9-4.68-7.54-5.42S210.1,221.06,210.1,221.06Z" style="fill: rgb(38, 50, 56); transform-origin: 197.171px 253.95px;" id="el5k0jsac24ap" class="animable"></path><g id="el2od9xri59mh"><path d="M181.76,281.42c-.36.74,7.54,5.42,7.54,5.42s3-2.64,13.35-25.68c1.24-2.78,2.35-5.43,3.36-8,7.32-18.45,8.31-30.09,4.09-32.14l-3.42,7.26C199.21,244.26,182,280.84,181.76,281.42Z" style="fill: rgb(255, 255, 255); opacity: 0.2; isolation: isolate; transform-origin: 197.171px 253.93px;" class="animable"></path></g><g id="elqh00xns2uml"><path d="M181.76,281.42c-.36.74,7.54,5.42,7.54,5.42s3-2.64,13.35-25.68c1.24-2.78,2.35-5.43,3.36-8,5.85-18.87,1.79-30.49,1.79-30.49C200.33,238.65,182,280.84,181.76,281.42Z" style="opacity: 0.2; isolation: isolate; transform-origin: 195.46px 254.755px;" class="animable"></path></g><path d="M201.6,215.23c-.94-2-9.64-5.19-12.91-4.71l-.89,8.09L200,224.13S203.2,218.62,201.6,215.23Z" style="fill: rgb(38, 50, 56); transform-origin: 194.924px 217.301px;" id="el3cdaahl055o" class="animable"></path><polygon points="198.67 258.78 210.37 221.79 178.42 210.83 169.95 250.62 198.67 258.78" style="fill: rgb(255, 255, 255); transform-origin: 190.16px 234.805px;" id="elxyv662agxs" class="animable"></polygon><path d="M206.84,382.33c-5.27-12.25-11.53-29.49-13.29-45.7-14.28-30.26-15-67.29-15-67.29l15.34-6s8.53,49.22,10.71,69.41c1.7,15.75,6.89,35.91,10.79,49.56Z" style="fill: rgb(238, 193, 187); transform-origin: 196.97px 322.835px;" id="el3fufts0rv4j" class="animable"></path><path d="M180.73,382.33h-8.17c-2.68-13.12-5.37-31.72-3.71-48.28-7.72-32.56-.72-68.93-.72-68.93l16.25-2.68s-1.84,49.92-3.89,70.12C178.94,348,179.77,368.2,180.73,382.33Z" style="fill: rgb(238, 193, 187); transform-origin: 174.801px 322.385px;" id="elwy31qijtd1d" class="animable"></path><path d="M196.28,222c-6.15-3.28-7-6.78-7-6.78C194.81,213,194,205,194,205l7.22,4.41a25.67,25.67,0,0,0-1.55,3.16c-1.85,4.7.26,5.56.26,5.56C200.28,221.16,196.28,222,196.28,222Z" style="fill: rgb(238, 193, 187); transform-origin: 195.25px 213.5px;" id="el315cbqww84j" class="animable"></path><g id="el0yxfun57lpob"><path d="M201.18,209.36a25.67,25.67,0,0,0-1.55,3.16c-5.25-2-5.67-7.57-5.67-7.57Z" style="opacity: 0.2; isolation: isolate; transform-origin: 197.57px 208.735px;" class="animable"></path></g><path d="M205.16,186c6.9,2.2,7.94,6.61,6.18,13.88-2.21,9.09-6.19,14.78-14.22,10.12C186.23,203.67,193.7,182.32,205.16,186Z" style="fill: rgb(238, 193, 187); transform-origin: 201.954px 198.62px;" id="elt5g3s1ksff8" class="animable"></path><path d="M207,198.05a15.48,15.48,0,0,0,1.09,3.51,2,2,0,0,1-2.06.2Z" style="fill: rgb(212, 130, 125); transform-origin: 207.06px 200.003px;" id="elflhh9pz4pst" class="animable"></path><path d="M203,196.14c-.17.57-.62.94-1,.83s-.55-.66-.38-1.24.61-.94,1-.83S203.12,195.57,203,196.14Z" style="fill: rgb(46, 53, 58); transform-origin: 202.3px 195.935px;" id="elzye9q9crdb" class="animable"></path><path d="M202.4,194.88l1.39-.12S202.86,195.62,202.4,194.88Z" style="fill: rgb(46, 53, 58); transform-origin: 203.095px 194.97px;" id="elsf3h5s7fa6" class="animable"></path><path d="M210.09,198.1c-.17.58-.61,1-1,.84s-.56-.67-.39-1.24.61-.94,1-.83S210.26,197.53,210.09,198.1Z" style="fill: rgb(46, 53, 58); transform-origin: 209.395px 197.912px;" id="elyivkwd9f1u" class="animable"></path><path d="M209.54,196.85l1.38-.12S210,197.59,209.54,196.85Z" style="fill: rgb(46, 53, 58); transform-origin: 210.23px 196.94px;" id="elo3cpfcknvpi" class="animable"></path><path d="M204.4,191.24a3.75,3.75,0,0,0-3.31.31" style="fill: none; stroke: rgb(46, 53, 58); stroke-linecap: round; stroke-linejoin: round; stroke-width: 0.72468px; transform-origin: 202.745px 191.271px;" id="el81p76bepe5o" class="animable"></path><path d="M209.6,192.5a3.39,3.39,0,0,1,2.37,1.75" style="fill: none; stroke: rgb(46, 53, 58); stroke-linecap: round; stroke-linejoin: round; stroke-width: 0.72468px; transform-origin: 210.785px 193.375px;" id="elftm3lj3j6ff" class="animable"></path><path d="M193.9,195.21s5-4.64,5.95-9.18c0,0,15.46-1.22,11.7,12.88,0,0,5.27-11.9-6.5-16s-17.27,13.31-12.79,20.44C192.26,203.39,190.77,198.12,193.9,195.21Z" style="fill: rgb(46, 53, 58); transform-origin: 201.717px 192.822px;" id="el5mgs1bdp10x" class="animable"></path><path d="M194.57,197a3.18,3.18,0,0,0-2.38-3.8c-2.21-.45-4.64,3.61.35,6.37C193.25,200,193.92,199.37,194.57,197Z" style="fill: rgb(238, 193, 187); transform-origin: 192.13px 196.431px;" id="elctj01d57o95" class="animable"></path><path d="M201.84,200.51s-.47,2.76,3,4" style="fill: none; stroke: rgb(46, 53, 58); stroke-linecap: round; stroke-linejoin: round; stroke-width: 0.72468px; transform-origin: 203.329px 202.51px;" id="elzb8rioa4vt8" class="animable"></path><path d="M197.2,255.21l9.51,69.87s-17.79,6-48.83.53c0,0-4.29-37.75,8.89-66.61l.59-2.8Z" style="fill: rgb(255, 142, 60); transform-origin: 181.962px 291.56px;" id="el7hqksty0316" class="animable"></path><polygon points="199.01 256.14 198.39 261.73 167.68 255.82 169.7 250.14 199.01 256.14" id="elanardt0ckdj" class="animable" style="transform-origin: 183.345px 255.935px;"></polygon><path d="M183.29,259.14c.72.14,8.33,2.1,8.79,1.69s1.07-6,1.07-6c-.48-.81-8.53-2.28-9-2S182.57,259,183.29,259.14Zm1.61-5.58c.34-.21,7,1,7.35,1.66,0,0-.5,4.55-.87,4.89s-6.64-1.27-7.23-1.38S184.56,253.78,184.9,253.56Z" style="fill: rgb(255, 255, 255); transform-origin: 188.102px 256.841px;" id="elp143jmv6h1" class="animable"></path><path d="M185.25,255.26l1.59.31a.6.6,0,0,1,.48.64v0a.58.58,0,0,1-.7.52l-1.59-.33a.6.6,0,0,1,.23-1.17Z" style="fill: rgb(255, 255, 255); transform-origin: 185.967px 255.985px;" id="el25t5j0ogcvh" class="animable"></path><path d="M188.69,210.52l4.14,4.68-2.81,3a137,137,0,0,1-11.67,30.67l-13.24-6s8.5-27.2,13.47-32.43l8.1,2.57Z" style="fill: rgb(38, 50, 56); transform-origin: 178.97px 229.655px;" id="ela45p3ff3765" class="animable"></path><g id="ele6ly7guhlvm"><path d="M170.19,228c-2.84,7.54-5.08,14.88-5.08,14.88l7.75,3.52,5.49,2.51A137,137,0,0,0,190,218.22l2.81-3-4.14-4.69-2,2.48-8.1-2.57C176.3,212.82,172.58,221.64,170.19,228Z" style="fill: rgb(255, 255, 255); opacity: 0.2; isolation: isolate; transform-origin: 178.96px 229.675px;" class="animable"></path></g><path d="M201.6,215.23l-.59,2.94.5,2.56s.69,18.77-6,33.12l6.67,1.55s9.71-25.64,8-34.34l-7.53-3.24Z" style="fill: rgb(38, 50, 56); transform-origin: 202.946px 235.315px;" id="elhswr3xku6yi" class="animable"></path><g id="el10apa2knmc7q"><path d="M201.6,215.23l-.59,2.94.5,2.56s.69,18.77-6,33.12l6.67,1.55s9.71-25.64,8-34.34l-7.53-3.24Z" style="fill: rgb(255, 255, 255); opacity: 0.2; isolation: isolate; transform-origin: 202.946px 235.315px;" class="animable"></path></g></g><g id="freepik--character-2--inject-2" class="animable" style="transform-origin: 329.503px 270.805px;"><path d="M283.32,418.27h92.83a11.58,11.58,0,0,0,11.31-10.41l24-274.12a9.38,9.38,0,0,0-9.5-10.4H309.13a11.59,11.59,0,0,0-11.32,10.4l-24,274.12A9.39,9.39,0,0,0,283.32,418.27Z" style="fill: rgb(38, 50, 56); transform-origin: 342.635px 270.805px;" id="elehlc1trxrkl" class="animable"></path><g id="el4j7e7mslqnm"><path d="M283.32,418.27h92.83a11.58,11.58,0,0,0,11.31-10.41l24-274.12a9.38,9.38,0,0,0-9.5-10.4H309.13a11.59,11.59,0,0,0-11.32,10.4l-24,274.12A9.39,9.39,0,0,0,283.32,418.27Z" style="fill: rgb(255, 255, 255); opacity: 0.2; isolation: isolate; transform-origin: 342.635px 270.805px;" class="animable"></path></g><path d="M273.32,418.27h92.83a11.58,11.58,0,0,0,11.31-10.41l24-274.12a9.38,9.38,0,0,0-9.5-10.4H299.13a11.59,11.59,0,0,0-11.32,10.4l-24,274.12A9.39,9.39,0,0,0,273.32,418.27Z" style="fill: rgb(38, 50, 56); transform-origin: 332.635px 270.805px;" id="elyhfj6aefei" class="animable"></path><path d="M291.69,133.22l-24,274.64c-.2,2.26.9,4,2.47,4H370.76c1.43,0,2.66-1.61,2.84-3.68l24.09-275.3c.15-1.8-.62-3.37-1.87-3.37H370.66a2.17,2.17,0,0,0-1.76,1.63l-1.36,3.7a2.16,2.16,0,0,1-1.76,1.62H323c-.71,0-1.3-.64-1.48-1.59l-.72-3.72c-.18-1-.76-1.64-1.47-1.64H294.49C293.11,129.52,291.87,131.24,291.69,133.22Z" style="fill: rgb(255, 142, 60); transform-origin: 332.688px 270.685px;" id="el4neupabpzkm" class="animable"></path><g id="elro2keczbx9n"><polygon points="269.9 382.33 375.86 382.33 384.49 283.66 384.81 280.04 390.94 209.96 391.21 206.87 392.59 191.14 392.92 187.32 396.48 146.68 290.52 146.68 269.9 382.33" style="fill: rgb(255, 255, 255); opacity: 0.8; isolation: isolate; transform-origin: 333.19px 264.505px;" class="animable"></polygon></g><g id="elpvucdha72c8"><polygon points="385.33 140.59 384.03 140.59 384.25 138.07 385.56 138.07 385.33 140.59" style="fill: rgb(255, 255, 255); opacity: 0.6; isolation: isolate; transform-origin: 384.795px 139.33px;" class="animable"></polygon></g><g id="elhfhz1emdc"><polygon points="387.47 140.59 386.16 140.59 386.45 137.23 387.76 137.23 387.47 140.59" style="fill: rgb(255, 255, 255); opacity: 0.6; isolation: isolate; transform-origin: 386.96px 138.91px;" class="animable"></polygon></g><g id="elpan2spevkzr"><polygon points="389.6 140.59 388.29 140.59 388.66 136.39 389.97 136.39 389.6 140.59" style="fill: rgb(255, 255, 255); opacity: 0.6; isolation: isolate; transform-origin: 389.13px 138.49px;" class="animable"></polygon></g><g id="el4mj7lx808n9"><polygon points="391.73 140.59 390.43 140.59 390.87 135.55 392.18 135.55 391.73 140.59" style="fill: rgb(255, 255, 255); opacity: 0.6; isolation: isolate; transform-origin: 391.305px 138.07px;" class="animable"></polygon></g><g id="elz6ocf2sjl6"><polygon points="303.12 139.67 303.9 139.67 304.12 137.15 303.34 137.15 303.12 139.67" style="fill: rgb(255, 255, 255); opacity: 0.6; isolation: isolate; transform-origin: 303.62px 138.41px;" class="animable"></polygon></g><g id="ele723dkaljg"><polygon points="302.51 140.59 296.33 140.59 296.71 136.23 302.89 136.23 302.51 140.59" style="fill: rgb(255, 255, 255); opacity: 0.6; isolation: isolate; transform-origin: 299.61px 138.41px;" class="animable"></polygon></g><g id="elw39rsepu2um"><path d="M345,129.88c-.1,1.16.47,2.1,1.28,2.1s1.53-.94,1.63-2.1-.46-2.1-1.27-2.1S345.09,128.72,345,129.88Z" style="fill: rgb(255, 255, 255); opacity: 0.6; isolation: isolate; transform-origin: 346.455px 129.88px;" class="animable"></path></g><g id="ellwkn3n5ztyc"><path d="M342,129.88c-.06.74.3,1.34.82,1.34s1-.6,1-1.34-.29-1.34-.81-1.34S342.11,129.14,342,129.88Z" style="fill: rgb(255, 255, 255); opacity: 0.6; isolation: isolate; transform-origin: 342.907px 129.88px;" class="animable"></path></g><g id="elrhwxj7s3gfm"><polygon points="324.74 187.32 324.74 283.66 384.49 283.66 384.81 280.04 390.94 209.96 391.21 206.87 392.59 191.14 392.92 187.32 324.74 187.32" style="fill: rgb(255, 142, 60); opacity: 0.2; transform-origin: 358.83px 235.49px;" class="animable"></polygon></g><g id="elpirfd5u76tm"><rect x="328.33" y="191.13" width="38.38" height="15.73" style="fill: rgb(255, 142, 60); opacity: 0.2; transform-origin: 347.52px 198.995px;" class="animable"></rect></g><g id="elltrgra18t1"><polygon points="369.81 191.14 369.81 206.87 391.21 206.87 392.59 191.14 369.81 191.14" style="fill: rgb(255, 142, 60); opacity: 0.2; transform-origin: 381.2px 199.005px;" class="animable"></polygon></g><g id="elut6yxj6tbt"><rect x="328.33" y="209.96" width="38.38" height="70.08" style="fill: rgb(255, 142, 60); opacity: 0.2; transform-origin: 347.52px 245px;" class="animable"></rect></g><g id="elbu7ufi0cvt"><polygon points="369.81 209.96 369.81 280.04 384.81 280.04 390.94 209.96 369.81 209.96" style="fill: rgb(255, 142, 60); opacity: 0.2; transform-origin: 380.375px 245px;" class="animable"></polygon></g><g id="freepik--group--inject-2" class="animable" style="transform-origin: 302.916px 303.984px;"><path d="M301.32,276.15s-15.25,12.5-18.55,14.24-16.15-15.28-16.15-15.28L264,277.86s13.75,21.4,18.77,21.06,23.1-14.27,23.1-14.27Z" style="fill: rgb(185, 121, 100); transform-origin: 284.935px 287.017px;" id="elip6xu15ihhb" class="animable"></path><g id="elpwrqc6qqulm"><path d="M301.32,276.15s-15.25,12.5-18.55,14.24-16.15-15.28-16.15-15.28L264,277.86s13.75,21.4,18.77,21.06,23.1-14.27,23.1-14.27Z" style="opacity: 0.2; isolation: isolate; transform-origin: 284.935px 287.017px;" class="animable"></path></g><path d="M310.82,272.59c-7.25-4.7-21,11.67-21,11.67l7.82,11.45S320,278.57,310.82,272.59Z" style="fill: rgb(255, 142, 60); transform-origin: 301.426px 283.726px;" id="eld3rlgy54o2q" class="animable"></path><g id="ellanxqtgr25h"><path d="M289.84,284.26l7.82,11.45s.71-.54,1.82-1.46a85.68,85.68,0,0,0,6.92-6.43c5-5.33,9.47-11.95,4.42-15.23C303.57,267.89,289.84,284.26,289.84,284.26Z" style="opacity: 0.2; isolation: isolate; transform-origin: 301.44px 283.726px;" class="animable"></path></g><g id="el7bpsvpox4ja"><path d="M299.48,294.25a85.68,85.68,0,0,0,6.92-6.43l-5-7.84A24.24,24.24,0,0,0,299.48,294.25Z" style="opacity: 0.2; isolation: isolate; transform-origin: 302.77px 287.115px;" class="animable"></path></g><path d="M306.23,325.4s17.49-5.71,42.09-3.14c0,0-5.1-48.59-20.24-53.41s-24.52,8.91-24.52,8.91Z" style="fill: rgb(255, 142, 60); transform-origin: 325.94px 296.612px;" id="elxqlrojtxox" class="animable"></path><g id="eln3a30783w1i"><path d="M306.23,325.4s17.49-5.71,42.09-3.14c0,0-5.1-48.59-20.24-53.41s-24.52,8.91-24.52,8.91Z" style="opacity: 0.5; isolation: isolate; transform-origin: 325.94px 296.612px;" class="animable"></path></g><path d="M329.71,359.66c-.43,0-5.22-.05-5.66-.09a128.17,128.17,0,0,1-25.46-5.23C291.16,352.11,286,350,286,350c-1,5.68,3.92,20.65,8.24,32.3H277.51c-9.53-17.26-21.26-43.62-11.2-54.47,11.61-12.53,43.11,1.07,43.11,1.07l8.23-17.38,34.89,2S360.07,361.27,329.71,359.66Z" style="fill: rgb(38, 50, 56); transform-origin: 307.911px 346.91px;" id="elpuvga4uzxv" class="animable"></path><g id="elac3iryde0pb"><path d="M325.35,359.66l-1.3-.09a128.17,128.17,0,0,1-25.46-5.23C311.23,352,323.28,343,323.28,343Z" style="opacity: 0.2; isolation: isolate; transform-origin: 311.97px 351.33px;" class="animable"></path></g><path d="M314.78,382.33c-.61-20.77,4.61-45.88,6.3-48.39,0,0,31.53-.88,30.65,7-.63,5.62-9.38,27.95-13,41.41Z" style="fill: rgb(38, 50, 56); transform-origin: 333.239px 358.13px;" id="el9gol4tcybg" class="animable"></path><path d="M325.49,259.81a39.25,39.25,0,0,0-16.2,4.22l-4.66,6.07s18.76-8.84,23.45-5.14Z" style="fill: rgb(255, 142, 60); transform-origin: 316.355px 264.955px;" id="elfqhixfw12ls" class="animable"></path><path d="M353.41,321.4l-39.32-2.16s1.21-31.05-12.89-44a34.47,34.47,0,0,1,7.28-6,44,44,0,0,1,19.35-6.7c4.65-.47,5.68,6.31,11.47,7.54C339.3,270.1,353.5,280.65,353.41,321.4Z" style="fill: rgb(255, 255, 255); transform-origin: 327.305px 291.958px;" id="el1itoroen3e4" class="animable"></path><path d="M315,265c-5.78,3.15-7.15,8.4-8.35,14s-.45,46.48-.45,46.48l-5.9-50.24s6-7.05,10.72-9.55Z" style="fill: rgb(255, 142, 60); transform-origin: 307.65px 295.24px;" id="elsj4vj3evvk" class="animable"></path><g id="elb3hkus3hlgd"><path d="M315,265c-5.78,3.15-7.15,8.4-8.35,14s-.45,46.48-.45,46.48l-5.9-50.24s6-7.05,10.72-9.55Z" style="opacity: 0.2; isolation: isolate; transform-origin: 307.65px 295.24px;" class="animable"></path></g><path d="M327.09,263.34c-2.47,5.71-5.82,8.54-9,9.2-3.77.79-6.9-3.61-6.9-3.61s2-2.92,1.72-4.9a9.27,9.27,0,0,0-1.41-3.37c-.36-.58-.76-1.13-1.18-1.68l5.79-12C317.33,252.27,320,264.19,327.09,263.34Z" style="fill: rgb(185, 121, 100); transform-origin: 318.705px 259.807px;" id="elenyaphmmfgt" class="animable"></path><g id="elk2hwfc60b39"><path d="M316.29,252.59c2.62,5.89-1.23,9.92-3.35,11.44a9.27,9.27,0,0,0-1.41-3.37Z" style="opacity: 0.2; isolation: isolate; transform-origin: 314.351px 258.31px;" class="animable"></path></g><path d="M308,232.78s-5.27,6.45-2.68,12.47,12.13-10,12.13-10Z" style="fill: rgb(38, 50, 56); transform-origin: 311.027px 239.691px;" id="elkjjboyhsapb" class="animable"></path><path d="M301.85,246.86a23,23,0,0,0-.56,2.74c0,.36-.07.71-.08,1.07a10.12,10.12,0,0,0,2.55,7,9.07,9.07,0,0,0,10.43,2.46l.34-.14c4.72-2.11,6.16-6.11,9.14-12.65a9.86,9.86,0,0,0-9.13-14.07C308,233.37,303.49,240.62,301.85,246.86Z" style="fill: rgb(185, 121, 100); transform-origin: 312.911px 247.057px;" id="elpjvocha6k2s" class="animable"></path><path d="M312.76,245.27c-.18.56-.67.88-1,.74s-.47-.7-.27-1.24.68-.88,1-.74S313,244.72,312.76,245.27Z" style="fill: rgb(38, 50, 56); transform-origin: 312.133px 245.021px;" id="elci74ytb49a5" class="animable"></path><path d="M306.58,242.89c-.17.56-.68.88-1,.74s-.47-.7-.27-1.24.68-.88,1-.74S306.78,242.37,306.58,242.89Z" style="fill: rgb(38, 50, 56); transform-origin: 305.945px 242.641px;" id="ely7yc7e6ajk9" class="animable"></path><path d="M308.44,243.92a20.71,20.71,0,0,1-4.42,3.66,3.41,3.41,0,0,0,2.44,1.51Z" style="fill: rgb(162, 78, 63); transform-origin: 306.23px 246.505px;" id="elbt865rry1df" class="animable"></path><path d="M315.44,244a.37.37,0,0,1-.26-.24,2.77,2.77,0,0,0-1.64-1.87.35.35,0,0,1-.23-.43.34.34,0,0,1,.43-.22h0a3.39,3.39,0,0,1,2.1,2.32.34.34,0,0,1-.22.43h0A.48.48,0,0,1,315.44,244Z" style="fill: rgb(38, 50, 56); transform-origin: 314.577px 242.614px;" id="elph5o92s6rag" class="animable"></path><path d="M306.26,252.26h0a5.28,5.28,0,0,0,4.86.19.18.18,0,0,0,.07-.25.17.17,0,0,0-.23-.08h0a5,5,0,0,1-4.52-.2.18.18,0,0,0-.24.06v0a.18.18,0,0,0,.06.24Z" style="fill: rgb(38, 50, 56); transform-origin: 308.696px 252.424px;" id="elaakxmki1vc4" class="animable"></path><path d="M304.75,239.74a.36.36,0,0,1-.2-.06.35.35,0,0,1,0-.49h0a3.36,3.36,0,0,1,3-.91.33.33,0,0,1,.25.41h0a.35.35,0,0,1-.41.25h0a2.79,2.79,0,0,0-2.37.76A.38.38,0,0,1,304.75,239.74Z" style="fill: rgb(38, 50, 56); transform-origin: 306.131px 238.984px;" id="elafxdn93sm2h" class="animable"></path><path d="M320.25,257.85h0a1.48,1.48,0,0,1-1.27-2.26c1.21-1.93,1.9-3.85,1.45-4.22-.78-.64-1.3.39-1.3.39-1.21-2.34-.92-6.73,1.09-8.76a2.55,2.55,0,0,0-1.51-4.22s8.59.41,9.21,2.84-.47,8.1-4.51,13.22A14,14,0,0,1,320.25,257.85Z" style="fill: rgb(38, 50, 56); transform-origin: 323.247px 248.315px;" id="elmxzlao2ecd" class="animable"></path><path d="M307.68,250.36s-3.05-1.27-3.66-.4c-1,1.46-.22,8.5,1.16,9.94s8.21,2.19,9.35.08.17-8.64-1.23-9.82-4.61.2-4.61.2l.15,1s3.31-1,4.07.5.92,5.43,0,5.94-4,1.38-3.64-2.07h-2s.5,2.38.1,2.53a1.92,1.92,0,0,1-2.17-1.33c-.4-1.28-.9-5.24-.55-5.83s3.2.19,3.2.19Z" style="fill: rgb(38, 50, 56); transform-origin: 309.3px 255.472px;" id="elvncsu24ke0f" class="animable"></path><path d="M318.71,238.78a1.75,1.75,0,0,1-1.54-2.17s-3.67,1.68-5.06-1c0,0-3.8,1.48-4.28-.79,0,0-2.36,1.28-3.2-.79s3.2-3.27,3.2-3.27a2.09,2.09,0,0,1,.61-3.06c1.88-1.49,4.33,1.48,4.33,1.48s.34-2.67,2.26-3.46,3.38,3.26,3.38,3.26,1.31-2.47,3-1.58S324,232.2,324,232.2s2.26-2.13,3.95,0a5.53,5.53,0,0,1,.9,4.71s3.36,1.72,2.86,4.32-2,1.81-2,1.81,1.18,3.22.09,5.52-2.5,0-2.5,0a6.9,6.9,0,0,1-1.25,4.86c-1.69,2.18-2.38-6.09-2.38-6.09S323.92,240.65,318.71,238.78Z" style="fill: rgb(38, 50, 56); transform-origin: 318.138px 239.702px;" id="el0elmlcgthetc" class="animable"></path><path d="M324.47,254a6.87,6.87,0,0,1-4.9,1.82c-2.4-.11-2.85-2.44-1.57-4.32,1.16-1.65,3.82-3.66,5.92-2.61A3.05,3.05,0,0,1,324.47,254Z" style="fill: rgb(185, 121, 100); transform-origin: 321.456px 252.212px;" id="elrsp5kv9qjus" class="animable"></path><path d="M249.43,253.2s18,26.6,24.12,33c0,0,.35,15.39,3.43,17.38s1.14.8,2.91,0,2.18,1.79,5.12,1,1.88-5.19,3.88-7.44,7.55,1.94,4.43-3.5-15.71-13.2-15.71-13.2,5.17-34,3.07-38.52-8.62,3.71-12.3,1.32-6.84-3.37-8.45,1.92-7.19,4.83-8,4.49S247.85,250.88,249.43,253.2Z" style="fill: rgb(255, 142, 60); transform-origin: 271.628px 272.635px;" id="elcobnjlfy6se" class="animable"></path><g id="elmw55irly1j"><path d="M285,304.59c2.94-.74,1.88-5.19,3.88-7.44s7.55,1.94,4.43-3.5-15.71-13.2-15.71-13.2,4.45-29.18,3.42-37.07a5,5,0,0,0-.35-1.44c-2.11-4.56-8.62,3.7-12.3,1.3s-6.84-3.36-8.45,1.93-7.19,4.82-8,4.49a3,3,0,0,0-2.93,2,2,2,0,0,0,.38,1.56s18,26.6,24.12,33c0,0,.35,15.39,3.44,17.39s1.14.79,2.9,0S282.07,305.33,285,304.59Z" style="fill: rgb(255, 255, 255); opacity: 0.6; isolation: isolate; transform-origin: 271.601px 272.635px;" class="animable"></path></g><g id="elp3zv1zdjdt"><path d="M263.37,257.5c2.52-1.65,3.78-6.13,6.28-5.15s2.15,6,4.94,2,.46-9,2.6-9.64a27.55,27.55,0,0,0,2.87-.94c.32-.13.65-.27,1-.43a5,5,0,0,0-.35-1.44,4,4,0,0,0-.25-.46c-2.34-3.51-8.5,4.07-12.05,1.76a15.34,15.34,0,0,0-2.88-1.53h0c-2.41-.91-4.4-.38-5.57,3.47-1.61,5.3-7.19,4.82-8,4.49a2.94,2.94,0,0,0-2.41,1,2,2,0,0,0-.52,1c.43,2,2.38,2.28,4.49,2.27a26.94,26.94,0,0,1,4.68,0C261,254.49,260.85,259.16,263.37,257.5Z" style="opacity: 0.4; isolation: isolate; transform-origin: 265.045px 249.176px;" class="animable"></path></g><path d="M263.37,257.5c2.52-1.65,3.78-6.13,6.28-5.15s2.15,6,4.94,2,.46-9,2.6-9.64l.69-.2a20.91,20.91,0,0,0,2.18-.74c.15-.81.28-1.59.37-2.33.2-1.68.19-3-.25-3.34-1.45-1.09-4.89,2.44-4.89,2.44s1.64-3.31-.91-3.89-3.14,3.93-3.14,3.93-1.22-4.29-3.56-5.07-2.19,5.83-2.18,6.15c0-.18-.71-3.42-3.49-4.66s-3.77,7.64-3.77,7.64S257,239.32,255,240s-.74,4.57-.66,4.86c-.22-.32-3.63-5.15-4.69-3.18s2.17,5.65,2.34,5.85c-.15-.06-4.42-1.83-4.5.67,0,1.1,1,1.93,2.13,2.52a14.74,14.74,0,0,0,3.29,1.16l.68,2.07c.49,0,1,0,1.48-.06a15.05,15.05,0,0,1,3.2.06C261,254.49,260.85,259.16,263.37,257.5Z" style="fill: rgb(255, 142, 60); transform-origin: 264.023px 246.651px;" id="el8wr0ab7nlfh" class="animable"></path><g id="eljqddvez3n6"><path d="M263.37,257.5c2.52-1.65,3.78-6.13,6.28-5.15s2.15,6,4.94,2,.46-9,2.6-9.64l.69-.2c-.44-1.24-1-2.32-1.62-2.31-1.37,0-.11,2,0,2.22-.2-.23-2.22-2.35-4-1.36s1,3,1,3c-1.32,0-2.41,2.16-2.41,2.16s.78-3-.76-4-3.11,3.17-3.29,3.64c.11-.41.85-3.47-.77-4.3s-2,4.18-2,4.18-.46-6.38-3.28-7-.8,7.87-.8,7.87-3.64-3.71-3.83-2.7,1,3.68,1,3.68-2.44-2.44-3.48,0c-.46,1.11.33,2.74,1.34,4.21a15.05,15.05,0,0,1,3.2.06C261,254.49,260.85,259.16,263.37,257.5Z" style="fill: rgb(255, 255, 255); opacity: 0.2; isolation: isolate; transform-origin: 265.693px 249.281px;" class="animable"></path></g><path d="M323.24,267.47s12.7,34.22,13.49,62.9l21.56-4s2.68-58.64-30.21-65.12Z" style="fill: rgb(255, 142, 60); transform-origin: 340.791px 295.81px;" id="el06ovgrye34xh" class="animable"></path><g id="elbdxyzzn6wh"><path d="M323.24,267.46s1.95,5.26,4.37,13.38c1.36,4.55,2.86,10,4.25,15.93,2.46,10.48,4.56,22.45,4.87,33.6l21.56-4s2.68-58.64-30.21-65.12Z" style="opacity: 0.2; isolation: isolate; transform-origin: 340.791px 295.81px;" class="animable"></path></g><path d="M325.49,259.81s.2,5.28-2.25,7.66l6,3.95.79-10.13Z" style="fill: rgb(255, 142, 60); transform-origin: 326.635px 265.615px;" id="elfnw63wet7da" class="animable"></path><path d="M281.77,279.56s-.75-3.12-2-3-9.11-.8-10.73-.31.2,6.43,1.61,7.2,9-.42,10.23-1.16S281.77,279.56,281.77,279.56Z" style="fill: rgb(185, 121, 100); transform-origin: 275.108px 279.902px;" id="el1ll5ma4fo0z" class="animable"></path><g id="el4ktrdvh8yrb"><path d="M327.61,280.84c1.36,4.55,2.86,10,4.25,15.93,8-6.68,9.47-22.88,9.47-22.88Z" style="opacity: 0.2; isolation: isolate; transform-origin: 334.47px 285.33px;" class="animable"></path></g><path d="M329.61,272.41s-15.25,12.51-18.56,14.24-30.3-8.9-30.3-8.9l-1.85,3.76s27.14,14,32.15,13.67,23.11-14.26,23.11-14.26Z" style="fill: rgb(185, 121, 100); transform-origin: 306.53px 283.798px;" id="el5v0v27otg4" class="animable"></path><path d="M339.1,268.85c-7.25-4.7-21,11.67-21,11.67L325.94,292S348.32,274.83,339.1,268.85Z" style="fill: rgb(255, 142, 60); transform-origin: 329.714px 280.001px;" id="elia237iwsdlq" class="animable"></path><g id="elfcmh52oxj0f"><path d="M339.1,268.85c-7.25-4.7-21,11.67-21,11.67L325.94,292S348.32,274.83,339.1,268.85Z" style="opacity: 0.2; isolation: isolate; transform-origin: 329.714px 280.001px;" class="animable"></path></g><path d="M266.41,277.47s-2.18,1.18-3.36.59-5.64-7.88-4.75-8.24,4.41-2.71,4.84-1.82S267.57,276.52,266.41,277.47Z" style="fill: rgb(185, 121, 100); transform-origin: 262.402px 273.013px;" id="eluc8azoeg2l" class="animable"></path></g></g><g id="freepik--speech-bubble-2--inject-2" class="animable" style="transform-origin: 296.69px 190.656px;"><g id="elno0dmf04dlh"><rect x="276.52" y="164.31" width="40.34" height="40.34" rx="3.69" style="fill: rgb(255, 142, 60); transform-origin: 296.69px 184.48px; transform: rotate(179.29deg);" class="animable"></rect></g><g id="ell84ibq044do"><path d="M285.48,176.68c2.8-4.66,8.26-3,11.12.61,2.76-3.63,8.18-5.48,11.09-.89,4.9,7.74-4.91,15.09-9.55,18l-1.32.82-1.35-.79C290.77,191.64,280.78,184.54,285.48,176.68Z" style="fill: rgb(255, 255, 255); opacity: 0.6; isolation: isolate; transform-origin: 296.64px 184.45px;" class="animable"></path></g><path d="M292.56,201.58s5.45,12,17.34,15.67c0,0-6.6-3.7-6.25-16.31Z" style="fill: rgb(255, 142, 60); transform-origin: 301.23px 209.095px;" id="eluo004kiylwr" class="animable"></path></g><g id="freepik--speech-bubble-1--inject-2" class="animable" style="transform-origin: 239.13px 151.076px;"><g id="el01lfe3mbyvpp"><rect x="218.96" y="124.73" width="40.34" height="40.34" rx="3.69" style="fill: rgb(255, 142, 60); transform-origin: 239.13px 144.9px; transform: rotate(0.71deg);" class="animable"></rect></g><path d="M243.25,162s-5.45,12-17.34,15.67c0,0,6.6-3.7,6.25-16.31Z" style="fill: rgb(255, 142, 60); transform-origin: 234.58px 169.515px;" id="elofa1cz8jzz" class="animable"></path><path d="M227.52,141.21a10.87,10.87,0,0,1,.57-1.25h0a12.4,12.4,0,0,1,22.27.55,13.28,13.28,0,0,1,.57,1.48,12.4,12.4,0,1,1-23.41-.77Z" style="fill: rgb(255, 142, 60); transform-origin: 239.091px 145.68px;" id="el4a01g4qnm78" class="animable"></path><g id="elqaahfelhskn"><path d="M226.7,145.24a12.26,12.26,0,0,1,.82-4,10.87,10.87,0,0,1,.57-1.25h0a12.4,12.4,0,0,1,22.27.55,13.28,13.28,0,0,1,.57,1.48,12.4,12.4,0,1,1-24.23,3.26Z" style="fill: rgb(255, 255, 255); opacity: 0.6; isolation: isolate; transform-origin: 239.092px 145.713px;" class="animable"></path></g><path d="M239.78,153.72c2.38-.53,3.31-3.43,3.46-5a.38.38,0,0,0-.33-.41.37.37,0,0,0-.41.34S242,153,239,153.05s-3.34-4.67-3.34-4.72a.39.39,0,0,0-.4-.35.38.38,0,0,0-.35.4c0,.23.41,5.44,4.09,5.42A3.52,3.52,0,0,0,239.78,153.72Z" style="fill: rgb(38, 50, 56); transform-origin: 239.075px 150.89px;" id="elxjz4l94kn8s" class="animable"></path><path d="M231.27,147.46c.23.26.52.38.63.27s0-.4-.21-.65-.51-.38-.63-.27S231,147.21,231.27,147.46Z" style="fill: rgb(255, 142, 60); isolation: isolate; transform-origin: 231.472px 147.271px;" id="elxnjvpfnqb3" class="animable"></path><path d="M230.24,147.46c.23.26.52.38.63.27s0-.4-.21-.65-.51-.38-.63-.27S230,147.21,230.24,147.46Z" style="fill: rgb(255, 142, 60); isolation: isolate; transform-origin: 230.445px 147.271px;" id="el7dos07uq5q4" class="animable"></path><path d="M246.85,147.49c-.27.22-.57.29-.66.17s0-.4.31-.61.57-.29.67-.17S247.13,147.28,246.85,147.49Z" style="fill: rgb(255, 142, 60); isolation: isolate; transform-origin: 246.68px 147.271px;" id="elmuutvyav7f9" class="animable"></path><path d="M247.86,147.49c-.28.22-.58.29-.67.17s0-.4.31-.61.57-.29.67-.17S248.13,147.28,247.86,147.49Z" style="fill: rgb(255, 142, 60); isolation: isolate; transform-origin: 247.68px 147.271px;" id="el1rdxdi24np3" class="animable"></path><polyline points="245.42 141.92 240.67 144.19 245.42 145.97" style="fill: none; stroke: rgb(255, 142, 60); stroke-linecap: round; stroke-linejoin: round; isolation: isolate; transform-origin: 243.045px 143.945px;" id="ellkcjuqwv15m" class="animable"></polyline><polyline points="232.76 141.92 237.51 144.19 232.76 145.97" style="fill: none; stroke: rgb(255, 142, 60); stroke-linecap: round; stroke-linejoin: round; isolation: isolate; transform-origin: 235.135px 143.945px;" id="el52yq6m1ahv" class="animable"></polyline></g><defs>     <filter id="active" height="200%">         <feMorphology in="SourceAlpha" result="DILATED" operator="dilate" radius="2"></feMorphology>                <feFlood flood-color="#32DFEC" flood-opacity="1" result="PINK"></feFlood>        <feComposite in="PINK" in2="DILATED" operator="in" result="OUTLINE"></feComposite>        <feMerge>            <feMergeNode in="OUTLINE"></feMergeNode>            <feMergeNode in="SourceGraphic"></feMergeNode>        </feMerge>    </filter>    <filter id="hover" height="200%">        <feMorphology in="SourceAlpha" result="DILATED" operator="dilate" radius="2"></feMorphology>                <feFlood flood-color="#ff0000" flood-opacity="0.5" result="PINK"></feFlood>        <feComposite in="PINK" in2="DILATED" operator="in" result="OUTLINE"></feComposite>        <feMerge>            <feMergeNode in="OUTLINE"></feMergeNode>            <feMergeNode in="SourceGraphic"></feMergeNode>        </feMerge>            <feColorMatrix type="matrix" values="0   0   0   0   0                0   1   0   0   0                0   0   0   0   0                0   0   0   1   0 "></feColorMatrix>    </filter></defs></svg>